HIERARCHY
ROOT Hips
{
    OFFSET 0.000000 0.000000 0.000000
    CHANNELS 6 Xposition Yposition Zposition Zrotation Xrotation Yrotation
    JOINT Spine
    {
        OFFSET -0.000000 7.750029 0.000000
        CHANNELS 3 Zrotation Xrotation Yrotation
        JOINT Spine1
        {
            OFFSET -0.000000 19.767460 0.000000
            CHANNELS 3 Zrotation Xrotation Yrotation
            JOINT Neck
            {
                OFFSET -0.000000 19.686279 1.789662
                CHANNELS 3 Zrotation Xrotation Yrotation
                JOINT Head
                {
                    OFFSET -0.000000 13.231757 -1.890251
                    CHANNELS 3 Zrotation Xrotation Yrotation
                    End Site
                    {
                        OFFSET -0.000000 23.628138 0.000000
                    }
                }
            }
            JOINT LeftShoulder
            {
                OFFSET 3.736819 16.910755 -0.280982
                CHANNELS 3 Zrotation Xrotation Yrotation
                JOINT LeftArm
                {
                    OFFSET 13.626117 0.000000 0.000000
                    CHANNELS 3 Zrotation Xrotation Yrotation
                    JOINT LeftForeArm
                    {
                        OFFSET 31.364786 0.000000 0.000000
                        CHANNELS 3 Zrotation Xrotation Yrotation
                        JOINT LeftHand
                        {
                            OFFSET 23.389509 0.000000 0.000000
                            CHANNELS 3 Zrotation Xrotation Yrotation
                            End Site
                            {
                                OFFSET 14.176883 0.000000 0.000000
                            }
                        }
                    }
                }
            }
            JOINT RightShoulder
            {
                OFFSET -3.821718 16.910755 -0.280982
                CHANNELS 3 Zrotation Xrotation Yrotation
                JOINT RightArm
                {
                    OFFSET -13.626117 0.000000 0.000000
                    CHANNELS 3 Zrotation Xrotation Yrotation
                    JOINT RightForeArm
                    {
                        OFFSET -31.364786 0.000000 0.000000
                        CHANNELS 3 Zrotation Xrotation Yrotation
                        JOINT RightHand
                        {
                            OFFSET -23.389509 0.000000 0.000000
                            CHANNELS 3 Zrotation Xrotation Yrotation
                            End Site
                            {
                                OFFSET -14.176883 0.000000 0.000000
                            }
                        }
                    }
                }
            }
        }
    }
    JOINT LeftUpLeg
    {
        OFFSET 9.451255 0.000000 0.000000
        CHANNELS 3 Zrotation Xrotation Yrotation
        JOINT LeftLeg
        {
            OFFSET -0.000000 -41.898624 0.000000
            CHANNELS 3 Zrotation Xrotation Yrotation
            JOINT LeftFoot
            {
                OFFSET -0.000000 -38.481331 0.000000
                CHANNELS 3 Zrotation Xrotation Yrotation
                JOINT LeftToeBase
                {
                    OFFSET -0.000000 -6.143315 14.176883
                    CHANNELS 3 Zrotation Xrotation Yrotation
                    End Site
                    {
                        OFFSET -0.000000 0.000000 3.780502
                    }
                }
            }
        }
    }
    JOINT RightUpLeg
    {
        OFFSET -9.451255 0.000000 0.000000
        CHANNELS 3 Zrotation Xrotation Yrotation
        JOINT RightLeg
        {
            OFFSET -0.000000 -41.898624 0.000000
            CHANNELS 3 Zrotation Xrotation Yrotation
            JOINT RightFoot
            {
                OFFSET -0.000000 -38.481331 0.000000
                CHANNELS 3 Zrotation Xrotation Yrotation
                JOINT RightToeBase
                {
                    OFFSET -0.000000 -6.143315 14.176883
                    CHANNELS 3 Zrotation Xrotation Yrotation
                    End Site
                    {
                        OFFSET -0.000000 0.000000 3.780502
                    }
                }
            }
        }
    }
}
MOTION
Frames:    8
Frame Time:    0.010000
-19.508833    89.923187    -32.324718    -1.248725    3.314176    179.028305    -0.025906    2.063746    0.200504    0.367993    8.693621    0.172254    -5.970896    37.831978    3.485269    0.511331    -33.395008    2.533920    8.639231    2.641828    -4.765614    -70.253532    55.738636    -16.133827    12.051427    -21.322058    -17.420506    -12.493532    -19.062557    -5.061017    -10.224764    6.996548    3.341638    66.530830    46.434933    25.224991    -8.983458    -12.975103    13.569968    10.286090    -11.617846    3.533223    7.367727    -6.464051    2.517376    -4.047856    22.535429    -0.080598    -2.991147    -9.416056    16.858957    0.000000    0.000000    0.000000    -9.142828    -6.005466    -1.524806    3.716424    23.280453    9.259845    1.685562    -13.659264    -24.732391    0.000000    0.000000    0.000000    
-19.501722    89.920303    -32.332890    -1.232424    3.305973    179.028183    -0.016819    2.074851    0.202772    0.371647    8.666859    0.174575    -5.806543    37.730408    3.409621    0.270086    -33.214016    2.394970    8.638797    2.630963    -4.771135    -70.299347    55.669907    -16.086967    12.046076    -21.219629    -17.395178    -12.520341    -18.957123    -5.097115    -10.216028    6.992786    3.340997    66.515472    46.472496    25.206678    -8.959929    -13.021162    13.634292    10.234994    -11.661943    3.550495    7.391045    -6.473053    2.510317    -4.051635    22.542545    -0.031903    -2.970184    -9.420513    16.805130    0.000000    0.000000    0.000000    -9.119482    -6.018463    -1.517255    3.714451    23.289492    9.249601    1.727026    -13.672040    -24.722012    0.000000    0.000000    0.000000    
-19.500139    89.913437    -32.347202    -1.243163    3.336694    179.037613    0.014411    2.225501    0.136061    0.254348    8.465101    0.117455    -5.791853    37.729095    3.464044    0.289389    -33.152737    2.462799    8.739501    2.715279    -4.559411    -70.292465    55.812954    -16.120436    12.056854    -21.257290    -17.412539    -12.490831    -18.993999    -5.089754    -10.181612    7.029387    3.454415    66.526543    46.513672    25.166998    -8.987378    -12.957143    13.683131    10.344690    -11.583638    3.590532    7.381228    -6.446268    2.501031    -4.060183    22.562847    -0.044874    -2.988686    -9.441921    16.840483    0.000000    0.000000    0.000000    -9.132167    -5.982665    -1.531508    3.721090    23.311781    9.227811    1.707240    -13.710823    -24.699703    0.000000    0.000000    0.000000    
-19.497910    89.911797    -32.353897    -1.246270    3.335488    179.039108    0.010839    2.239216    0.137911    0.256563    8.444427    0.119181    -5.789519    37.730049    3.438253    0.300708    -33.154259    2.441242    8.730878    2.753846    -4.540326    -70.205620    55.843266    -16.192406    11.869048    -21.681774    -17.674604    -11.971070    -19.492346    -4.640868    -10.187568    7.041863    3.453574    66.508797    46.524906    25.172714    -8.981947    -12.936272    13.728762    10.336409    -11.557776    3.615521    7.387855    -6.444236    2.484159    -4.074741    22.571054    -0.096617    -2.996448    -9.471291    16.898090    0.000000    0.000000    0.000000    -9.133200    -5.990934    -1.529832    3.718829    23.338221    9.259188    1.711470    -13.733761    -24.727861    0.000000    0.000000    0.000000    
-19.488998    89.913086    -32.352425    -1.232331    3.295831    179.035614    0.007128    2.216429    0.148230    0.286135    8.432142    0.127736    -5.971340    37.831009    3.510684    0.583526    -33.347271    2.590689    8.731539    2.740988    -4.555762    -70.222069    55.747101    -16.184088    11.795804    -21.637766    -17.683121    -11.904844    -19.458755    -4.656267    -10.206794    7.042111    3.449328    66.497612    46.512505    25.170073    -8.911410    -12.912616    13.783986    10.239609    -11.538338    3.646853    7.403909    -6.501955    2.518048    -4.054764    22.611166    -0.125669    -2.984448    -9.469950    16.874403    0.000000    0.000000    0.000000    -9.108551    -6.045114    -1.496142    3.719260    23.360197    9.235984    1.669265    -13.702988    -24.741699    0.000000    0.000000    0.000000    
-19.492338    89.909187    -32.364880    -1.236260    3.317433    179.038895    0.030269    2.259859    0.145444    0.222126    8.394805    0.130240    -5.891367    37.848774    3.475297    0.546786    -33.370815    2.554822    8.782048    2.739618    -4.549221    -70.268982    55.782219    -16.134792    11.824680    -21.640163    -17.719110    -11.868539    -19.460112    -4.601256    -10.166680    7.049775    3.451198    66.472519    46.542561    25.138451    -8.960129    -12.937593    13.982493    10.333151    -11.576799    3.223350    7.396303    -6.473864    2.492868    -4.064843    22.604904    -0.072904    -2.998133    -9.481925    16.873497    0.000000    0.000000    0.000000    -9.114619    -6.015868    -1.542814    3.703194    23.370470    9.255036    1.719985    -13.744168    -24.712961    0.000000    0.000000    0.000000    
-19.489367    89.904747    -32.374958    -1.239990    3.320347    179.039398    0.009092    2.254569    0.152094    0.263718    8.415938    0.132947    -5.746520    37.762211    3.416734    0.263393    -33.239529    2.410631    8.729052    2.732207    -4.571668    -70.225525    55.716690    -16.135521    11.807543    -21.582277    -17.707680    -11.910302    -19.396269    -4.674396    -10.184368    7.060195    3.454564    66.432297    46.500748    25.162317    -8.905339    -12.918041    14.005701    10.298284    -11.560806    3.247339    7.413720    -6.460895    2.425689    -4.132689    22.593752    -0.005535    -2.978083    -9.486032    16.881624    0.000000    0.000000    0.000000    -9.120154    -6.021009    -1.528648    3.717335    23.394060    9.228240    1.690507    -13.745850    -24.708912    0.000000    0.000000    0.000000    
-19.488274    89.906021    -32.375191    -1.239994    3.299335    179.037704    0.011170    2.254642    0.161403    0.273332    8.393227    0.141945    -5.940213    37.877934    3.469977    0.574843    -33.445915    2.548946    8.718280    2.754104    -4.577882    -70.166496    55.695866    -16.179733    11.770171    -21.603861    -17.742800    -11.833699    -19.423731    -4.669026    -10.203682    7.079531    3.437967    66.418488    46.508549    25.177942    -8.865243    -12.933124    14.056273    10.207420    -11.578041    3.263793    7.399158    -6.496528    2.497124    -4.064854    22.629431    -0.093038    -3.029434    -9.503475    16.894482    0.000000    0.000000    0.000000    -9.122911    -6.049783    -1.528087    3.723786    23.408588    9.253849    1.646349    -13.725806    -24.729563    0.000000    0.000000    0.000000    
